# xmcd
#
# Track frame offsets:
#	150
#	11935
#	26411
#	40594
#	52553
#	64461
#	77233
#	91205
#	103967
#	114600
#	128631
#	141650
#	154861
#	166467
#	179856
#
# Disc length: 2578 seconds
#
# Revision: 0
# Processed by: cddbd v1.5.1PL0 Copyright (c) Steve Scherf et al.
# Submitted via: dBpowerAMP V4.0
#
DISCID=d10a100f
DTITLE=Ernest Tubb - Still Walking the floor
DYEAR=1900
DGENRE=Country/Oldies
TTITLE0=walking the floor over you
TTITLE1=it's been so long darling
TTITLE2=rainbow at midnight
TTITLE3=i love you because
TTITLE4=tennessee border #2
TTITLE5=have you been lonely
TTITLE6=letters have no arms
TTITLE7=i'm biting my fingernails thinking about you
TTITLE8=try me one more time
TTITLE9=don't look now
TTITLE10=slippin'around
TTITLE11=drivin nails in my coffin
TTITLE12=throw your love my way
TTITLE13=let's say good bye like we said hello
TTITLE14=tomorrow never comes
EXTD=
EXTT0=
EXTT1=
EXTT2=
EXTT3=
EXTT4=
EXTT5=
EXTT6=
EXTT7=
EXTT8=
EXTT9=
EXTT10=
EXTT11=
EXTT12=
EXTT13=
EXTT14=
PLAYORDER=
